<?xml version="1.0" encoding="utf-8"?>
<!-- Pencil icon by Arthur Shlain from Usefulicons.com -->
<svg xmlns="http://www.w3.org/2000/svg" xmlns:xlink="http://www.w3.org/1999/xlink" xml:space="preserve" version="1.1" x="0px" y="0px" viewBox="0 0 100 100" width="16" height="16"><path d="M70,10L25,55L20,60L10.383,83.078L10.385,83.08C10.138,83.672,10,84.319,10,85C10,87.761,12.239,90,15,90C15.681,90,16.328,89.862,16.92,89.615L16.922,89.617L40,80L45,75L90,30L70,10ZM15.001,85L15.003,85L15.001,85L15.001,85ZM22.06,82.06L17.94,77.94L23.823,63.823L36.176,76.176L22.06,82.06Z" stroke="none"></path></svg>